<?xml version="1.0" standalone="no"?>
<!DOCTYPE svg PUBLIC "-//W3C//DTD SVG 20010904//EN"
 "http://www.w3.org/TR/2001/REC-SVG-20010904/DTD/svg10.dtd">
<svg version="1.0" xmlns="http://www.w3.org/2000/svg"
 width="1000.000000pt" height="1000.000000pt" viewBox="0 0 1000.000000 1000.000000"
 preserveAspectRatio="xMidYMid meet">
<metadata>
Created by potrace 1.14, written by Peter Selinger 2001-2017
</metadata>
<g transform="translate(0.000000,1000.000000) scale(0.100000,-0.100000)"
fill="#000000" stroke="none">
<path d="M407 9951 c-12 -99 -81 -192 -171 -232 -55 -24 -162 -42 -203 -34
l-33 6 2 -198 3 -198 55 3 c205 11 371 142 514 404 42 79 106 247 106 282 0
14 -18 16 -134 16 l-133 0 -6 -49z"/>
<path d="M877 9873 c-3 -71 -13 -157 -22 -192 -53 -217 -189 -344 -455 -429
-106 -34 -324 -82 -370 -82 l-30 0 0 -124 0 -123 83 -6 c100 -7 281 7 360 28
177 46 298 157 498 453 149 221 206 357 216 513 l6 89 -140 0 -140 0 -6 -127z
m-467 -782 c0 -10 -41 -25 -97 -36 -48 -10 -41 11 10 28 49 18 87 21 87 8z"/>
<path d="M1270 9988 c0 -49 -43 -459 -55 -528 -41 -238 -119 -366 -271 -447
-34 -18 -202 -80 -375 -137 -288 -96 -392 -124 -521 -141 l-48 -6 0 -78 0 -79
358 -7 c388 -9 523 -1 606 34 70 30 156 119 248 255 45 67 115 166 156 220
123 166 169 274 181 431 8 92 -2 421 -14 473 -5 21 -9 22 -135 22 -97 0 -130
-3 -130 -12z m147 -297 c-9 -129 -47 -191 -47 -77 0 52 17 163 27 180 14 22
25 -34 20 -103z m-589 -918 c-4 -23 -68 -53 -130 -62 -128 -17 -111 27 24 63
75 21 110 20 106 -1z"/>
<path d="M1750 9987 c0 -37 -33 -267 -59 -414 -39 -220 -44 -293 -31 -438 30
-340 109 -585 219 -678 47 -39 130 -86 266 -147 203 -93 386 -185 474 -239 46
-28 90 -51 97 -51 7 0 31 18 53 40 46 46 73 50 137 19 64 -31 186 -166 230
-254 58 -118 32 -158 -82 -129 -103 27 -124 28 -124 9 0 -9 24 -72 54 -139
102 -231 139 -403 103 -488 -29 -68 -130 -93 -264 -65 -132 28 -154 43 -213
144 -71 118 -100 160 -149 211 -83 85 -219 153 -272 137 -50 -16 3 -118 120
-233 60 -58 162 -132 285 -205 55 -32 83 -85 111 -210 42 -188 -27 -246 -221
-186 -350 108 -719 428 -773 670 -23 100 23 168 157 231 98 47 110 64 93 135
-21 82 -141 394 -184 478 -87 168 -207 237 -472 274 -166 23 -261 13 -465 -49
-189 -58 -249 -65 -557 -65 l-283 0 0 -129 0 -129 58 7 c136 15 331 18 431 7
149 -18 242 -44 359 -102 176 -86 292 -224 292 -345 0 -70 -9 -90 -83 -192
-61 -84 -62 -87 -62 -151 0 -58 5 -77 42 -151 24 -47 95 -167 159 -265 143
-221 174 -283 174 -350 0 -57 -9 -73 -87 -158 -66 -72 -69 -98 -15 -152 55
-56 197 -147 335 -214 305 -148 774 -286 1017 -298 72 -3 123 -11 137 -19 34
-21 73 -106 73 -157 0 -56 -24 -88 -93 -121 -94 -46 -156 -49 -397 -20 -687
81 -1128 192 -1494 376 -123 61 -201 114 -249 167 -88 98 -51 152 185 265 106
50 168 97 168 128 0 33 -26 72 -136 199 -201 233 -277 364 -278 473 0 80 13
104 129 226 111 117 125 149 106 235 -47 211 -363 410 -702 441 l-69 7 0
-1613 0 -1612 113 7 c61 4 200 2 308 -4 285 -16 436 -49 397 -87 -28 -28 -118
-36 -465 -41 l-353 -5 0 -92 0 -91 223 -2 c482 -6 814 -51 983 -134 38 -19 97
-61 139 -101 40 -38 93 -77 117 -88 65 -29 249 -40 648 -40 383 0 440 -7 462
-55 15 -34 -13 -105 -58 -144 -70 -62 -246 -96 -499 -96 -281 0 -354 26 -510
176 -50 49 -107 95 -126 103 -45 19 -147 32 -399 51 -339 25 -493 34 -742 41
l-238 7 0 -159 0 -160 243 -32 c133 -18 301 -39 372 -48 364 -41 552 -80 670
-138 82 -41 119 -76 189 -183 67 -102 92 -114 301 -147 229 -37 280 -52 325
-95 49 -46 62 -96 58 -217 -2 -75 0 -97 12 -105 26 -17 131 -2 230 35 52 19
140 51 195 71 128 46 210 56 245 27 22 -18 25 -28 24 -79 -2 -109 -95 -336
-181 -441 -48 -58 -116 -108 -257 -187 -210 -117 -412 -260 -560 -396 -343
-316 -574 -787 -616 -1259 -11 -130 -13 -399 -4 -513 l7 -77 53 0 c61 0 58 -7
69 150 12 180 72 451 140 636 92 246 203 431 351 584 113 116 225 198 372 273
131 67 196 88 382 127 119 25 178 32 330 37 121 4 197 10 219 19 60 25 163
106 285 224 191 185 269 303 316 475 46 171 148 353 249 449 106 99 177 95
217 -11 l17 -44 -61 -118 c-67 -130 -87 -181 -126 -319 -54 -193 -175 -369
-351 -511 -138 -111 -246 -157 -420 -180 -126 -17 -141 -23 -314 -122 -225
-129 -363 -179 -501 -179 -115 0 -247 -19 -325 -47 -255 -92 -452 -358 -549
-739 -45 -179 -86 -482 -86 -646 l0 -58 64 0 64 0 1 109 c5 454 268 931 600
1089 97 47 184 53 328 23 55 -12 123 -21 150 -21 102 0 214 50 478 214 248
154 372 205 575 236 92 14 116 27 300 175 175 140 243 177 327 176 71 0 168
-30 168 -51 0 -21 -180 -158 -272 -207 -91 -48 -160 -68 -298 -84 -55 -6 -113
-17 -130 -24 -16 -6 -88 -56 -160 -110 -369 -279 -497 -339 -805 -379 -63 -8
-160 -29 -215 -46 -55 -17 -141 -42 -192 -55 -296 -78 -510 -293 -631 -636
-34 -97 -67 -242 -77 -341 l-7 -68 119 0 120 0 6 103 c7 123 25 198 74 297 40
83 115 166 179 198 48 24 129 42 192 42 107 0 232 53 502 215 205 122 319 175
528 244 195 65 209 72 417 221 135 96 249 159 325 181 25 6 102 13 172 14
l126 1 135 68 c119 60 143 69 204 73 82 6 153 -11 257 -64 l71 -36 145 -1
c137 -1 148 -3 205 -29 33 -15 92 -53 131 -83 85 -65 527 -520 601 -619 157
-209 249 -458 260 -703 l6 -122 110 0 109 0 -7 78 c-40 438 -228 835 -614
1300 -134 162 -254 287 -289 301 -15 6 -82 22 -149 35 -127 25 -215 59 -300
117 -84 57 -193 150 -193 164 0 7 26 26 58 42 45 22 71 28 123 28 59 0 71 -4
123 -38 31 -21 126 -104 209 -185 148 -143 154 -148 227 -171 214 -68 355
-184 558 -459 129 -174 277 -448 367 -676 53 -136 110 -349 122 -457 l8 -74
353 -3 352 -2 -6 27 c-37 164 -93 281 -171 355 -191 181 -199 191 -440 556
-387 586 -433 640 -703 818 -133 87 -187 130 -281 224 -178 176 -262 315 -310
509 -33 132 -76 230 -160 356 -32 50 -59 99 -59 108 0 28 27 73 54 91 55 36
115 13 206 -77 114 -114 203 -274 266 -477 58 -186 149 -343 347 -603 128
-168 219 -261 402 -411 315 -258 425 -326 602 -372 149 -39 249 -106 348 -234
142 -185 244 -515 245 -792 l0 -78 110 0 c125 0 113 -10 125 105 3 33 19 138
36 234 56 325 57 423 8 861 -24 215 -19 268 24 292 16 9 103 15 302 18 l280 6
180 61 c245 84 336 97 638 91 l227 -5 0 139 c0 138 0 138 -22 133 -13 -2 -75
-9 -138 -15 -361 -32 -624 18 -815 155 -151 108 -220 254 -169 360 8 18 40 62
71 97 134 153 120 203 -171 618 -210 300 -220 348 -97 463 77 72 86 89 67 126
-38 72 -268 211 -530 320 -135 56 -379 134 -538 171 -73 18 -164 41 -203 52
-169 48 -325 165 -325 244 0 29 7 44 35 70 64 60 101 63 315 31 58 -9 197 -28
310 -42 500 -64 927 -180 1267 -346 217 -106 333 -202 333 -276 0 -48 -45 -86
-199 -168 -74 -39 -144 -83 -154 -97 -18 -24 -18 -30 -7 -57 7 -17 60 -82 117
-144 307 -329 398 -484 353 -603 -15 -38 -43 -69 -141 -157 -48 -42 -94 -93
-104 -113 -35 -75 4 -180 102 -276 132 -127 320 -209 553 -237 46 -6 86 -11
87 -11 2 0 3 710 3 1578 l0 1577 -283 0 c-170 1 -326 6 -392 14 -174 21 -305
60 -305 91 0 20 63 40 152 50 56 6 238 7 461 3 l367 -6 0 90 0 90 -257 6
c-504 12 -855 68 -998 158 -27 17 -85 64 -127 105 -61 58 -88 76 -130 89 -72
20 -341 35 -673 35 -289 0 -335 6 -361 46 -25 38 -14 121 20 151 60 51 281 93
493 93 253 0 369 -40 498 -174 96 -99 114 -111 185 -125 132 -26 812 -80 1113
-88 l237 -6 0 156 0 157 -31 0 c-17 0 -124 16 -237 35 -114 19 -281 43 -372
55 -365 46 -540 82 -655 134 -89 41 -132 79 -186 164 -85 134 -90 136 -362
176 -197 30 -233 39 -277 68 -65 45 -74 68 -80 194 -4 87 -9 117 -20 125 -30
20 -98 3 -345 -85 -78 -28 -115 -36 -170 -36 -81 0 -109 14 -131 66 -29 69 -6
201 60 355 76 175 117 214 357 339 167 88 357 210 485 313 110 90 275 264 356
378 122 170 247 438 298 639 45 176 51 235 57 568 l5 322 -61 0 -61 0 0 -38
c0 -72 -31 -297 -56 -411 -128 -573 -391 -957 -804 -1170 -202 -104 -361 -139
-675 -151 -243 -8 -246 -9 -386 -115 -182 -136 -380 -346 -449 -477 -49 -92
-61 -148 -66 -313 -6 -176 -8 -191 -31 -200 -78 -29 -168 -23 -208 15 -56 52
-78 205 -51 340 34 164 108 297 248 446 184 194 325 275 538 308 157 25 179
33 302 102 255 145 373 187 557 198 207 13 310 41 423 115 214 141 368 414
443 785 26 132 53 353 57 484 l3 82 -61 0 -61 0 -7 -112 c-8 -133 -28 -261
-57 -355 -100 -328 -298 -592 -526 -705 -107 -53 -184 -60 -325 -29 -213 46
-264 31 -623 -187 -286 -173 -358 -204 -555 -237 -121 -21 -150 -35 -290 -146
-151 -120 -247 -183 -304 -199 -57 -16 -150 -8 -209 18 l-41 18 25 23 c43 42
179 140 242 175 90 50 167 73 307 91 146 19 142 17 360 179 297 220 441 291
668 327 219 34 422 85 586 146 176 66 352 236 453 438 65 129 126 342 139 481
l7 74 -120 0 -120 0 -7 -90 c-25 -331 -193 -530 -447 -530 -92 0 -219 -57
-494 -223 -196 -119 -336 -184 -523 -246 -190 -63 -194 -65 -377 -196 -268
-191 -325 -215 -530 -222 l-140 -5 -90 -48 c-146 -77 -201 -93 -293 -88 -65 4
-95 12 -182 51 l-105 46 -140 3 c-133 3 -143 5 -205 34 -93 44 -197 131 -335
279 -66 71 -164 175 -217 231 -128 135 -203 239 -270 371 -91 179 -135 337
-145 526 l-6 107 -103 0 -104 0 0 -49 c0 -68 35 -268 66 -374 85 -299 245
-586 510 -917 104 -130 232 -270 274 -300 16 -11 86 -33 161 -50 98 -22 158
-42 224 -74 97 -49 288 -190 283 -209 -2 -7 -26 -23 -53 -37 -39 -20 -65 -25
-120 -25 -63 0 -77 4 -129 35 -32 19 -127 101 -210 181 -150 143 -154 146
-247 182 -132 51 -209 100 -307 192 -324 305 -643 950 -679 1371 l-6 74 -323
0 c-178 0 -324 -1 -324 -3 0 -2 7 -28 16 -58 22 -75 57 -133 129 -209 79 -84
111 -133 295 -445 273 -465 393 -641 526 -772 40 -39 153 -132 251 -205 280
-208 449 -393 553 -603 57 -115 80 -200 80 -301 0 -95 -22 -165 -62 -199 -30
-25 -38 -27 -98 -23 -65 5 -105 21 -115 46 -3 7 -10 65 -16 129 -22 241 -99
398 -373 762 -186 246 -287 364 -476 552 -290 288 -361 333 -541 347 -127 10
-174 30 -261 110 -174 162 -288 465 -288 770 l0 102 -120 0 c-91 0 -120 -3
-120 -13z m6867 -724 c-3 -10 -8 -40 -12 -68 -17 -123 -103 -332 -190 -465
-38 -56 -106 -133 -93 -105 2 6 38 80 80 165 42 85 99 218 128 295 28 77 56
152 62 168 11 29 32 38 25 10z m-6616 -179 c40 -58 107 -144 149 -191 117
-132 150 -173 157 -200 15 -64 -55 -82 -138 -36 -140 75 -279 308 -279 464 0
98 22 91 111 -37z m5503 96 c70 -26 -3 -70 -161 -97 -102 -17 -133 -15 -133
11 0 18 74 63 133 81 51 16 126 19 161 5z m-3604 -379 c78 -59 229 -200 262
-245 37 -51 25 -66 -34 -40 -85 38 -234 186 -282 281 -29 57 -17 58 54 4z
m2490 -92 c0 -30 -147 -135 -236 -169 -104 -39 -124 -18 -47 49 86 77 283 160
283 120z m831 -70 c20 -10 20 -11 2 -31 -44 -50 -317 -157 -359 -141 -22 8
-17 19 26 56 52 44 155 96 222 113 68 16 85 16 109 3z m940 -218 c-18 -33
-164 -175 -236 -230 -103 -77 -223 -134 -296 -139 -63 -5 -89 6 -89 38 0 28
39 53 172 110 156 67 294 137 383 194 39 25 71 46 73 46 1 0 -2 -8 -7 -19z
m-2603 -83 c5 -24 -69 -75 -135 -94 -43 -12 -60 -13 -88 -4 -19 6 -35 17 -35
24 0 21 44 56 96 76 63 25 157 24 162 -2z m-742 -33 c28 -8 61 -26 74 -40 22
-23 22 -27 8 -41 -41 -41 -155 -24 -214 31 -31 29 -35 37 -24 50 16 20 91 20
156 0z m1382 -137 c4 -23 -85 -118 -166 -176 -45 -32 -76 -46 -108 -50 -44 -5
-44 -5 -44 27 0 91 303 280 318 199z m-2069 -53 c107 -54 231 -203 217 -260
-8 -32 -38 -40 -78 -19 -70 36 -238 238 -238 286 0 26 41 23 99 -7z m1105 -5
c86 -22 128 -39 133 -56 6 -17 -163 -153 -225 -182 -64 -29 -97 -25 -168 19
-71 46 -144 109 -144 125 0 18 122 77 200 98 75 20 114 19 204 -4z m1578 -198
c-1 -13 -40 -77 -86 -143 -46 -65 -111 -174 -145 -243 -64 -129 -95 -166 -139
-166 -87 0 -82 142 10 299 43 73 201 232 258 260 25 12 59 20 75 19 25 -3 30
-7 27 -26z m-3302 -38 c45 -40 119 -148 144 -208 9 -21 16 -56 16 -77 0 -32
-4 -39 -19 -39 -29 0 -72 58 -140 191 -57 111 -74 169 -51 169 5 0 28 -16 50
-36z m1955 -68 c18 -28 16 -42 -28 -171 -26 -79 -31 -107 -35 -230 -5 -145
-15 -185 -51 -205 -59 -31 -121 12 -140 98 -8 40 -7 84 4 194 18 168 28 210
62 260 35 51 79 78 130 78 34 0 46 -5 58 -24z m1748 -26 c30 -24 47 -74 39
-115 -11 -60 -128 -139 -253 -171 -126 -32 -174 18 -119 126 69 135 252 223
333 160z m-2361 -24 c59 -42 79 -102 85 -262 6 -144 -2 -184 -44 -234 -45 -54
-113 -33 -142 43 -6 15 -15 83 -21 150 -5 67 -13 150 -16 184 -8 71 6 115 39
131 24 12 73 6 99 -12z m-391 -466 c63 -34 63 -158 0 -214 -28 -25 -84 -26
-111 -1 -51 47 5 225 71 225 11 0 29 -5 40 -10z m-1026 -83 c81 -81 46 -227
-53 -227 -57 0 -85 33 -90 110 -9 130 67 193 143 117z m2314 -11 c22 -17 51
-87 51 -123 0 -35 -37 -73 -72 -73 -32 0 -77 29 -93 60 -50 96 36 199 114 136z
m-4307 4 c35 0 237 -238 287 -338 47 -93 -1 -118 -117 -61 -123 61 -245 209
-259 318 -5 33 -1 44 21 66 16 16 33 24 42 21 9 -3 20 -6 26 -6z m2428 -35
c26 -24 27 -92 0 -177 -29 -96 -86 -138 -186 -138 -76 0 -89 41 -59 185 17 80
37 112 86 138 43 23 129 19 159 -8z m2991 -21 c46 -41 48 -136 4 -180 -19 -19
-35 -24 -73 -24 -75 0 -120 54 -107 131 7 38 45 83 80 92 30 8 77 -1 96 -19z
m-1745 -23 c41 -25 96 -109 92 -141 -2 -17 -18 -35 -52 -57 -67 -45 -118 -45
-178 0 -23 18 -49 44 -57 58 -13 24 -12 29 9 63 29 47 95 96 129 96 14 0 40
-9 57 -19z m1342 -31 c40 -24 67 -81 81 -167 17 -106 3 -120 -116 -110 -99 8
-141 46 -169 157 -20 75 -14 117 19 130 43 17 149 11 185 -10z m-1708 -30 c49
-25 74 -61 66 -94 -8 -34 -90 -113 -125 -121 -39 -8 -104 10 -138 39 l-27 23
28 56 c33 69 86 117 127 117 16 0 48 -9 69 -20z m760 -51 c37 -38 70 -99 70
-132 0 -27 -38 -50 -100 -62 -45 -8 -78 5 -119 45 -47 48 -65 88 -52 116 14
32 77 63 128 64 33 0 47 -6 73 -31z m-1388 -26 c50 -45 -15 -163 -89 -163 -30
0 -63 29 -63 56 0 32 35 100 57 113 27 16 74 13 95 -6z m1982 -54 c29 -23 56
-69 56 -95 0 -68 -124 -70 -157 -2 -25 50 -25 67 1 93 31 30 65 32 100 4z
m-1689 -33 c41 -18 45 -39 15 -94 -41 -78 -76 -102 -145 -102 -52 0 -95 20
-95 44 0 29 63 137 88 151 35 18 94 19 137 1z m1442 -57 c31 -29 62 -94 63
-131 0 -24 -6 -29 -42 -39 -51 -13 -103 -6 -138 19 -30 21 -85 126 -75 142 27
44 147 50 192 9z m-929 -25 c52 -36 49 -80 -8 -109 -39 -20 -62 -19 -94 6 -35
28 -33 61 5 93 35 30 65 33 97 10z m-1382 -8 c14 -11 19 -25 17 -59 -4 -123
-57 -196 -156 -216 -67 -14 -93 -9 -101 22 -16 61 6 167 43 209 42 47 157 73
197 44z m3818 -8 c28 -14 36 -28 36 -58 0 -59 -75 -110 -175 -117 -48 -3 -66
0 -92 16 -55 34 -56 103 -3 143 48 36 179 45 234 16z m-2082 -15 c34 -32 36
-66 6 -87 -36 -26 -85 -20 -119 13 -35 36 -36 45 -4 76 33 34 80 33 117 -2z
m-2167 11 c23 -9 45 -57 45 -98 0 -50 -42 -96 -95 -103 -34 -4 -46 -1 -73 22
-56 47 -52 138 7 170 27 15 88 19 116 9z m3669 -25 c78 -19 126 -92 126 -189
0 -65 -13 -74 -104 -68 -133 9 -195 67 -204 191 -3 43 -1 62 9 68 20 12 122
11 173 -2z m-2169 -49 c15 -17 16 -24 5 -49 -14 -36 -50 -61 -85 -61 -66 0
-84 46 -39 99 32 38 90 43 119 11z m-804 -21 c16 -30 -4 -92 -38 -118 -28 -23
-82 -28 -101 -9 -26 26 -4 102 40 132 33 24 85 21 99 -5z m1780 1 c25 -14 51
-64 43 -85 -7 -18 -44 -35 -75 -35 -11 0 -34 13 -50 29 -30 31 -38 68 -17 89
15 15 72 16 99 2z m-1490 -10 c26 -14 24 -55 -3 -110 -31 -59 -65 -82 -132
-88 -47 -4 -56 -2 -65 16 -12 23 5 95 34 138 29 45 119 69 166 44z m2337 -23
c43 -21 67 -98 40 -125 -7 -7 -30 -12 -51 -12 -84 0 -144 114 -77 147 26 13
47 10 88 -10z m-295 -16 c39 -15 79 -75 85 -127 6 -53 -4 -64 -60 -64 -63 0
-116 27 -142 74 -35 60 -42 102 -19 115 23 13 104 14 136 2z m-1023 -38 c49
-43 49 -68 1 -100 -42 -29 -93 -29 -137 -2 -60 36 -55 80 11 121 46 28 79 23
125 -19z m-296 -18 c36 -24 33 -57 -9 -100 -29 -28 -43 -35 -76 -35 -22 0 -53
7 -69 15 -43 22 -40 57 10 107 36 37 44 40 79 35 21 -2 50 -13 65 -22z m566
-10 c27 -14 70 -71 70 -94 0 -19 -63 -51 -101 -51 -42 0 -82 27 -105 71 -17
34 -13 44 30 70 37 23 67 24 106 4z m2743 -6 c44 -12 107 -64 107 -88 0 -10
-9 -26 -21 -37 -18 -16 -37 -19 -143 -19 -136 0 -211 19 -226 59 -30 79 126
126 283 85z m-3823 -4 c32 -39 -24 -115 -85 -115 -61 0 -71 55 -20 106 28 28
85 33 105 9z m1594 -40 c14 -13 26 -28 26 -34 0 -5 3 -16 6 -24 7 -20 -22 -47
-51 -47 -40 0 -73 21 -90 55 -19 40 -19 40 1 59 24 24 77 20 108 -9z m-1362
-36 c32 -17 15 -71 -37 -119 -45 -42 -145 -26 -145 24 0 30 39 87 70 104 26
13 79 9 112 -9z m1153 -43 c64 -68 54 -115 -26 -123 -57 -5 -88 12 -117 64
-26 47 -21 68 16 82 56 20 93 13 127 -23z m-2436 5 c19 -12 25 -91 11 -150
-14 -61 -55 -101 -129 -126 -94 -31 -121 -8 -121 103 0 99 27 135 126 166 56
17 93 19 113 7z m4028 -15 c91 -29 141 -114 109 -189 -20 -49 -62 -61 -197
-55 -131 5 -190 30 -222 91 -25 49 -29 153 -7 168 22 15 254 4 317 -15z
m-3453 -46 c-1 -96 -68 -165 -152 -158 -36 3 -37 4 -40 50 -6 95 56 161 148
156 l45 -3 -1 -45z m-1071 12 c103 -46 96 -163 -11 -182 -100 -17 -273 66
-318 152 -15 30 -15 32 2 46 30 23 265 11 327 -16z m2194 4 c27 -24 27 -26 13
-53 -21 -38 -63 -52 -98 -32 -38 21 -41 61 -6 88 35 27 57 27 91 -3z m268 -11
c14 -13 25 -31 25 -39 0 -18 -47 -56 -70 -56 -28 0 -70 39 -70 65 0 28 34 55
68 55 12 0 34 -11 47 -25z m1223 -3 c45 -23 72 -73 72 -133 0 -54 -14 -63 -81
-48 -88 20 -131 62 -144 141 -10 56 7 72 68 64 27 -3 65 -14 85 -24z m-2920 6
c7 -7 12 -25 12 -41 0 -58 -44 -106 -97 -107 -40 0 -58 28 -49 75 12 61 99
108 134 73z m3232 -25 c37 -26 49 -45 50 -78 0 -42 -16 -55 -66 -55 -71 0
-131 70 -106 125 10 21 19 25 55 25 24 0 53 -7 67 -17z m-2720 -8 c30 -36 -22
-115 -76 -115 -39 0 -58 21 -50 56 15 60 94 97 126 59z m654 -11 c23 -22 20
-51 -9 -79 -28 -29 -51 -31 -83 -9 -28 19 -28 51 0 81 25 27 69 30 92 7z
m1466 -9 c55 -28 70 -98 25 -115 -28 -11 -80 5 -102 31 -22 26 -26 65 -8 83
20 20 47 20 85 1z m-1886 -1 c33 -13 8 -107 -35 -138 -30 -21 -102 -21 -119
-1 -17 21 3 88 35 121 24 24 81 32 119 18z m1197 -5 c23 -12 41 -52 33 -73 -3
-8 -19 -20 -35 -27 -38 -15 -72 1 -90 44 -11 27 -10 32 10 48 26 21 53 24 82
8z m454 -23 c40 -17 67 -64 63 -109 -3 -31 -5 -32 -55 -35 -29 -2 -62 2 -74 8
-22 12 -58 82 -59 113 0 34 68 47 125 23z m-831 -77 c29 -34 31 -42 16 -70
-10 -18 -59 -49 -79 -49 -5 0 -23 12 -40 26 -40 33 -42 74 -5 103 39 31 77 27
108 -10z m-653 11 c46 -25 8 -110 -49 -110 -55 0 -70 53 -27 95 26 27 46 31
76 15z m413 -21 c35 -28 34 -63 -4 -101 -35 -35 -69 -33 -109 7 -22 22 -23 26
-11 55 25 59 77 76 124 39z m467 -18 c49 -50 32 -103 -39 -117 -38 -8 -63 10
-82 57 -11 26 -10 32 6 50 41 45 76 48 115 10z m377 23 c21 -6 52 -49 52 -73
0 -19 -32 -41 -61 -41 -60 0 -92 73 -47 104 25 18 25 18 56 10z m3507 -84
c166 -37 254 -75 231 -98 -4 -4 -69 -7 -144 -7 -147 1 -268 20 -354 57 -61 26
-75 42 -57 64 12 14 29 16 124 11 60 -4 151 -16 200 -27z m-5610 -57 c0 -62
-3 -75 -25 -98 -45 -49 -131 -72 -144 -39 -18 48 3 144 37 173 23 19 88 41
112 38 18 -2 20 -9 20 -74z m1046 56 c14 -14 18 -27 14 -42 -11 -37 -41 -72
-64 -75 -29 -5 -78 15 -85 34 -7 17 10 63 31 86 22 25 78 23 104 -3z m-586
-47 c-1 -68 -31 -102 -98 -109 -43 -5 -46 -4 -53 21 -9 39 3 90 29 113 29 27
45 32 87 30 l35 -2 0 -53z m1495 20 c11 -13 20 -38 20 -54 0 -24 -6 -32 -36
-44 -20 -9 -47 -13 -60 -10 -33 9 -56 48 -52 88 2 28 9 35 37 44 44 14 66 8
91 -24z m-1742 16 c24 -24 9 -87 -27 -115 -26 -20 -69 -16 -81 7 -31 59 63
153 108 108z m2911 -18 c50 -25 69 -53 77 -112 8 -57 -7 -88 -43 -88 -90 0
-176 65 -187 142 -5 30 -3 55 4 69 11 19 18 21 60 16 27 -3 67 -15 89 -27z
m-534 -10 c31 -29 47 -83 35 -116 -11 -28 -51 -32 -105 -10 -54 23 -92 108
-64 142 20 24 103 14 134 -16z m213 9 c51 -18 81 -86 50 -117 -37 -37 -128 14
-128 72 0 52 21 65 78 45z m-2158 -34 c20 -24 0 -77 -34 -94 -62 -29 -106 39
-56 89 24 24 72 26 90 5z m-1221 -30 c8 -16 15 -57 15 -90 1 -47 -4 -67 -22
-92 -27 -38 -116 -84 -177 -91 -40 -4 -48 -1 -73 26 -16 17 -37 56 -47 88 -16
52 -16 59 -2 90 26 53 151 105 242 101 45 -2 51 -5 64 -32z m272 25 c14 -8 19
-21 19 -56 0 -37 -6 -51 -29 -75 -50 -50 -111 -35 -113 28 -1 46 12 73 45 94
36 22 50 23 78 9z m1672 -17 c15 -18 21 -36 18 -60 -1 -16 -37 -53 -51 -53
-20 0 -50 40 -50 67 0 53 51 81 83 46z m981 1 c23 -22 30 -62 16 -79 -14 -17
-62 -20 -90 -5 -24 13 -36 66 -20 85 16 20 75 19 94 -1z m1156 -4 c42 -21 60
-46 60 -79 0 -77 -152 -83 -204 -9 -20 29 -20 72 0 92 22 22 96 20 144 -4z
m-1922 -22 c27 -58 -40 -117 -80 -68 -23 28 -23 58 -1 82 24 27 65 20 81 -14z
m-739 -2 c20 -16 7 -87 -20 -109 -24 -20 -69 -18 -96 4 -30 26 -1 115 39 121
29 5 59 -2 77 -16z m311 -6 c32 -17 43 -48 30 -80 -14 -33 -34 -44 -59 -31
-45 24 -51 69 -15 105 18 19 20 19 44 6z m995 -15 c32 -31 35 -89 6 -105 -31
-16 -86 -12 -103 8 -37 42 -29 107 14 115 47 9 60 6 83 -18z m-375 -15 c18
-34 8 -73 -22 -90 -21 -11 -32 -12 -45 -4 -34 21 -33 84 1 106 21 14 55 8 66
-12z m-789 -60 c24 -13 27 -81 4 -100 -22 -18 -73 5 -81 37 -14 55 28 89 77
63z m-713 -57 c2 -29 -2 -61 -8 -73 -14 -27 -65 -52 -98 -48 -22 2 -29 10 -36
38 -17 70 44 144 114 138 23 -3 25 -8 28 -55z m1673 47 c24 -13 26 -66 2 -92
-19 -22 -56 -24 -72 -4 -21 25 -9 79 19 93 30 15 27 15 51 3z m-1486 -34 c30
-46 -1 -96 -59 -96 -49 0 -58 74 -13 105 31 21 54 18 72 -9z m2312 5 c50 -23
63 -45 63 -104 0 -61 -16 -73 -74 -57 -63 17 -98 57 -98 112 -1 25 2 50 6 56
11 18 55 14 103 -7z m-1302 -21 c20 -39 19 -66 -6 -101 -26 -38 -45 -37 -69 4
-25 41 -25 68 1 101 27 34 55 33 74 -4z m-797 -27 c4 -55 -10 -79 -49 -87 -67
-13 -104 54 -63 112 13 19 23 23 62 20 l47 -3 3 -42z m639 1 c15 -23 15 -30 2
-68 -18 -51 -47 -59 -78 -20 -27 34 -27 88 -1 114 24 24 50 15 77 -26z m1217
35 c30 -14 47 -55 35 -87 -7 -17 -16 -22 -44 -22 -43 0 -75 29 -75 68 0 49 32
64 84 41z m-900 -18 c33 -36 19 -108 -25 -132 -29 -15 -47 -5 -57 33 -11 40 2
83 31 103 27 19 30 19 51 -4z m689 10 c42 -16 58 -100 23 -123 -23 -16 -86 -8
-106 12 -26 26 -28 95 -2 109 22 13 54 14 85 2z m-2283 -22 c29 -54 -41 -144
-92 -117 -28 14 -24 83 7 113 30 31 70 33 85 4z m-220 -18 c5 -11 10 -45 10
-77 0 -54 -2 -59 -40 -95 -69 -66 -112 -65 -130 2 -21 75 3 134 68 168 47 26
79 26 92 2z m3227 -1 c33 -20 47 -51 41 -90 -11 -76 -138 -28 -138 53 0 59 38
73 97 37z m332 -25 c81 -37 105 -70 99 -135 -3 -27 -13 -61 -22 -76 -16 -23
-23 -26 -54 -21 -55 10 -139 55 -164 90 -25 35 -30 116 -8 156 10 20 18 23 50
18 21 -2 65 -17 99 -32z m-2234 0 c26 -26 31 -57 15 -99 -13 -34 -35 -33 -71
3 -31 31 -35 53 -19 95 12 33 43 34 75 1z m-299 -13 c18 -36 3 -76 -29 -80
-49 -6 -88 63 -55 96 20 20 71 10 84 -16z m952 16 c7 -7 12 -29 12 -49 0 -29
-7 -43 -31 -63 -53 -45 -79 -32 -79 39 0 25 8 40 31 59 34 29 49 32 67 14z
m330 -10 c32 -32 0 -98 -48 -98 -32 0 -50 17 -50 47 0 47 67 82 98 51z m2284
-18 c25 -7 56 -21 67 -31 30 -28 13 -53 -51 -77 -92 -34 -516 -96 -614 -90
-142 9 -154 114 -17 151 225 61 483 81 615 47z m-3404 -63 c16 -15 22 -32 22
-63 0 -49 -13 -57 -57 -39 -37 16 -53 42 -53 84 0 52 41 60 88 18z m-1498 3
c23 -12 39 -59 33 -94 -7 -35 -57 -76 -93 -76 -35 0 -60 31 -60 75 0 39 24 73
64 91 38 16 34 16 56 4z m2446 -16 c10 -41 -7 -75 -49 -97 -50 -26 -67 -18
-67 33 0 51 34 90 79 90 25 0 32 -5 37 -26z m-1432 0 c25 -24 21 -90 -6 -108
-32 -23 -85 -21 -98 3 -12 23 -13 71 -2 87 22 33 81 43 106 18z m-210 -20 c37
-37 3 -114 -51 -114 -53 0 -55 91 -3 117 32 16 35 16 54 -3z m2171 6 c34 -13
49 -53 35 -96 -11 -34 -20 -38 -70 -34 -48 3 -70 26 -70 73 0 24 5 48 12 55
15 15 57 16 93 2z m-1101 -22 c18 -25 21 -84 6 -122 -14 -37 -26 -32 -46 19
-14 38 -15 52 -5 85 13 46 23 49 45 18z m-1254 -14 c25 -66 1 -129 -59 -154
-42 -17 -58 -8 -70 38 -14 52 1 95 42 121 45 29 75 27 87 -5z m575 10 c23 -23
16 -75 -11 -85 -46 -16 -89 37 -70 87 7 19 61 18 81 -2z m815 -5 c15 -27 4
-93 -21 -121 -16 -20 -20 -21 -29 -8 -13 20 -13 93 2 125 14 30 33 32 48 4z
m751 1 c43 -24 11 -100 -42 -100 -57 0 -73 53 -27 93 23 20 41 21 69 7z m446
-12 c45 -42 19 -117 -36 -103 -14 4 -34 14 -43 22 -21 18 -24 73 -6 91 19 19
59 14 85 -10z m-1452 -18 c19 -36 21 -134 3 -128 -25 8 -58 71 -58 108 0 59
29 70 55 20z m1663 15 c79 -34 107 -90 78 -158 -12 -30 -20 -37 -42 -37 -31 0
-88 33 -109 63 -20 28 -19 97 1 125 18 26 23 27 72 7z m-1280 -34 c4 -36 -42
-125 -61 -118 -28 9 -14 108 19 142 23 23 38 14 42 -24z m-764 6 c18 -13 36
-73 29 -94 -6 -18 -54 -16 -81 3 -28 19 -45 59 -37 85 7 23 61 26 89 6z m1204
-34 c5 -47 -34 -83 -88 -83 -36 0 -40 2 -40 26 0 56 38 95 90 91 32 -2 35 -5
38 -34z m-932 -18 c23 -35 31 -105 12 -105 -41 0 -99 115 -72 143 10 10 42
-11 60 -38z m614 -2 c0 -34 -33 -86 -65 -103 -34 -18 -38 -11 -24 44 7 30 22
55 41 71 34 29 48 25 48 -12z m-1870 -2 c17 -33 11 -76 -15 -105 -29 -32 -59
-33 -79 -4 -23 32 -20 62 10 97 30 36 68 41 84 12z m3349 -50 c21 -19 31 -39
31 -58 0 -37 -25 -73 -51 -73 -36 0 -80 31 -95 65 -35 84 46 130 115 66z
m-2828 -18 c16 -42 10 -71 -17 -92 -35 -27 -69 -27 -88 1 -33 47 -14 102 39
117 39 10 54 4 66 -26z m628 7 c27 -27 51 -93 39 -106 -11 -10 -74 44 -91 78
-31 63 0 79 52 28z m-1371 7 c19 -22 35 -102 28 -133 -8 -32 -88 -114 -110
-114 -21 0 -54 46 -66 91 -14 49 4 92 54 137 38 33 76 41 94 19z m916 -2 c41
-41 26 -85 -29 -85 -38 0 -57 19 -57 56 0 42 54 61 86 29z m1286 -11 c0 -32
-68 -104 -99 -104 -25 0 -25 1 -7 43 14 36 69 87 92 87 8 0 14 -10 14 -26z
m-1087 -13 c10 -10 19 -34 20 -52 2 -34 2 -34 -42 -33 -47 1 -66 17 -78 63
-12 49 57 64 100 22z m1612 -1 c15 -17 16 -24 7 -45 -17 -37 -53 -50 -88 -33
-36 16 -42 50 -15 77 27 27 73 27 96 1z m200 5 c48 -19 61 -56 38 -104 -16
-32 -22 -36 -52 -34 -72 3 -108 61 -76 122 18 35 38 38 90 16z m-407 -7 c18
-18 15 -42 -9 -72 -17 -22 -28 -26 -70 -26 -33 0 -51 5 -55 14 -7 18 21 72 43
85 25 14 76 14 91 -1z m1406 -13 c137 -45 233 -85 251 -105 18 -20 18 -21 -11
-51 -16 -17 -62 -53 -102 -80 -59 -39 -82 -49 -115 -49 -54 0 -138 42 -183 92
-39 43 -44 84 -19 145 34 81 58 88 179 48z m-3396 -17 c25 -33 24 -58 -7 -88
-34 -34 -43 -36 -65 -14 -21 20 -20 73 1 96 19 21 56 24 71 6z m1231 -88 c0
-41 -6 -109 -13 -150 l-12 -75 -8 117 c-8 106 -3 178 11 201 12 20 23 -23 22
-93z m-70 -4 c6 -34 11 -94 10 -132 l-1 -69 -24 85 c-29 99 -40 171 -30 197 7
17 8 17 21 0 7 -10 18 -47 24 -81z m155 26 c-6 -44 -60 -211 -71 -222 -9 -9 8
133 23 194 8 33 19 65 25 73 20 23 30 3 23 -45z m-545 16 c31 -31 48 -65 38
-75 -10 -9 -74 17 -94 40 -12 12 -24 32 -28 45 -11 36 45 30 84 -10z m1869 -1
c39 -36 23 -107 -24 -107 -55 0 -90 40 -79 91 11 50 57 57 103 16z m-1564 -29
c24 -51 71 -216 63 -224 -8 -8 -99 197 -104 235 -8 57 10 52 41 -11z m696 33
c0 -37 -114 -110 -136 -88 -10 9 25 65 53 86 37 27 83 28 83 2z m-1955 -15
c19 -28 22 -84 7 -113 -15 -26 -60 -63 -78 -63 -21 0 -54 60 -54 99 0 24 9 42
34 67 40 40 69 43 91 10z m1585 10 c0 -28 -31 -100 -77 -176 -26 -43 -49 -78
-50 -76 -9 9 74 221 99 254 14 16 28 15 28 -2z m-387 -79 c33 -50 100 -187 92
-187 -10 0 -120 149 -136 185 -38 82 -9 83 44 2z m-493 13 c36 -50 23 -70 -44
-70 -65 0 -105 86 -46 100 40 10 69 0 90 -30z m960 30 c0 -33 -72 -131 -177
-240 -8 -8 11 30 42 85 66 118 135 196 135 155z m1397 -27 c18 -13 38 -33 44
-45 16 -30 4 -96 -22 -124 -33 -35 -65 -30 -110 15 -33 32 -39 45 -39 80 0 44
21 96 42 104 20 8 49 -3 85 -30z m-2573 -4 c33 -26 33 -54 1 -75 -31 -20 -53
-16 -77 16 -22 30 -17 53 15 68 30 15 31 15 61 -9z m-1104 -21 c24 -40 25 -60
5 -98 -22 -43 -69 -65 -106 -50 -65 27 -77 94 -25 146 47 47 98 48 126 2z
m2880 17 c17 -21 4 -62 -26 -81 -20 -14 -34 -15 -72 -8 -57 11 -63 29 -27 73
22 26 34 31 70 31 25 0 47 -6 55 -15z m-1363 -37 c33 -32 43 -58 22 -58 -59 0
-137 54 -125 86 10 25 64 10 103 -28z m-582 -9 c22 -42 18 -64 -16 -93 -37
-31 -52 -32 -78 -5 -43 47 -34 100 22 124 38 16 54 11 72 -26z m801 9 c40 -35
170 -202 139 -178 -97 73 -195 176 -195 204 0 14 21 4 56 -26z m614 12 c0 -19
-75 -93 -155 -153 -44 -33 -73 -52 -64 -41 119 148 219 237 219 194z m300 -9
c0 -28 -50 -60 -104 -67 -37 -5 -46 -4 -46 8 0 32 69 77 118 78 25 0 32 -4 32
-19z m434 0 c23 -25 18 -49 -15 -73 -24 -18 -28 -19 -62 -4 -27 11 -37 21 -37
37 0 54 78 80 114 40z m-4023 -31 c280 -22 471 -49 526 -76 64 -31 113 -84
113 -124 0 -42 -42 -86 -108 -111 -55 -21 -70 -22 -412 -22 -354 0 -579 10
-845 39 -385 41 -675 107 -675 154 0 20 89 51 213 75 110 22 412 60 542 68
123 8 523 6 646 -3z m1343 -12 c28 -39 15 -101 -26 -127 -47 -29 -94 49 -64
107 24 47 65 56 90 20z m2895 -4 c40 -34 41 -72 2 -116 -27 -30 -30 -31 -60
-18 -35 14 -71 54 -71 79 0 9 9 31 20 49 25 41 65 43 109 6z m-1604 -24 c28
-16 79 -57 115 -90 l65 -61 -60 32 c-91 50 -164 99 -175 119 -21 39 -11 39 55
0z m715 12 c0 -20 -63 -64 -160 -111 -110 -54 -109 -50 7 40 78 61 153 96 153
71z m-1670 -43 c17 -31 11 -65 -15 -89 -30 -28 -51 -21 -73 23 -30 61 56 127
88 66z m527 -1 c30 -28 29 -52 -2 -66 -40 -19 -74 -14 -100 13 -29 28 -31 38
-9 59 23 24 83 20 111 -6z m203 0 c51 -35 50 -48 -5 -48 -56 0 -105 23 -105
50 0 29 66 27 110 -2z m2456 -4 c34 -16 64 -58 64 -88 0 -8 -12 -28 -26 -45
-40 -48 -99 -39 -129 19 -22 43 -19 68 14 101 34 34 33 34 77 13z m-1221 -19
c0 -38 -113 -72 -154 -46 -33 21 52 72 114 68 33 -2 40 -6 40 -22z m223 -1
c29 -20 28 -48 -4 -73 -32 -25 -74 -27 -114 -6 -38 20 -38 37 1 69 35 30 83
34 117 10z m-2736 -11 c27 -31 48 -81 48 -116 0 -40 -50 -122 -80 -132 -29 -9
-74 34 -96 92 -16 41 -16 46 1 84 21 45 67 89 94 89 10 0 25 -8 33 -17z m1465
5 c42 -18 184 -100 180 -104 -5 -5 -166 50 -203 69 -17 9 -36 23 -43 31 -12
14 -10 16 12 16 14 0 39 -5 54 -12z m-592 -23 c14 -13 25 -28 25 -33 0 -17
-40 -44 -65 -44 -54 0 -75 57 -33 86 31 22 45 20 73 -9z m1393 13 c-9 -27
-100 -60 -283 -104 -31 -7 155 88 200 102 52 17 88 17 83 2z m1047 -23 c65
-64 -15 -156 -82 -93 -29 27 -30 71 -3 98 27 27 56 25 85 -5z m-2941 -26 c32
-38 34 -88 6 -134 -22 -36 -42 -48 -65 -39 -23 9 -55 68 -55 102 0 33 51 102
75 102 7 0 25 -14 39 -31z m2561 -14 c14 -13 25 -29 25 -35 0 -21 -41 -50 -70
-50 -29 0 -70 29 -70 50 0 19 48 60 70 60 12 0 32 -11 45 -25z m-2226 -24 c28
-39 26 -62 -8 -95 -37 -35 -73 -30 -96 14 -20 40 -19 53 10 84 32 35 68 34 94
-3z m560 8 c39 -23 37 -28 -18 -40 -64 -14 -135 23 -104 54 14 15 89 6 122
-14z m266 -9 c52 -17 95 -33 95 -36 0 -10 -143 8 -199 25 -30 9 -56 22 -59 29
-7 21 63 14 163 -18z m2615 8 c23 -7 186 -14 460 -19 509 -9 688 -26 960 -90
330 -78 317 -156 -39 -229 -191 -39 -386 -53 -656 -47 -143 4 -301 13 -370 22
-66 9 -195 20 -286 23 l-167 7 -57 39 c-95 66 -130 128 -102 182 17 31 80 95
112 112 26 15 101 15 145 0z m-1850 -6 c0 -25 -159 -56 -255 -50 l-50 3 95 27
c92 26 210 37 210 20z m-1252 -22 c42 -26 39 -49 -9 -74 -31 -17 -38 -17 -64
-5 -15 8 -33 22 -39 32 -9 15 -6 23 17 43 34 29 52 30 95 4z m1483 10 c66 -36
-46 -78 -129 -49 -37 13 -33 25 12 45 37 16 90 18 117 4z m993 -21 c57 -45 70
-109 35 -165 -40 -65 -84 -71 -128 -17 -40 48 -47 83 -25 128 17 37 57 75 79
75 7 0 24 -9 39 -21z m-388 -33 c19 -19 34 -43 34 -54 0 -25 -44 -79 -71 -87
-26 -9 -64 17 -84 55 -14 27 -14 33 0 59 16 32 51 61 73 61 8 0 29 -15 48 -34z
m-1551 0 l80 -12 -116 -8 c-135 -9 -223 3 -188 25 20 12 130 10 224 -5z m1154
-1 c53 -27 50 -64 -7 -91 -35 -16 -37 -16 -79 6 -52 28 -56 53 -10 80 38 24
59 25 96 5z m-461 -13 c13 -4 23 -11 23 -17 0 -22 -70 -24 -196 -7 -128 17
-129 17 -70 23 84 8 215 8 243 1z m-1414 -33 c14 -11 26 -27 26 -34 0 -16 -47
-55 -65 -55 -7 0 -23 8 -35 18 -28 23 -22 63 12 80 31 15 32 15 62 -9z m407
11 c26 -14 24 -25 -6 -38 -65 -30 -165 -2 -119 33 22 17 97 20 125 5z m-741
-20 c29 -29 26 -74 -6 -99 -29 -23 -55 -16 -74 19 -15 28 -12 44 11 74 25 31
42 33 69 6z m-350 0 c39 -21 43 -89 8 -130 -56 -65 -121 45 -67 114 22 28 31
31 59 16z m1390 -11 c-91 -28 -167 -39 -193 -30 l-21 8 21 12 c37 19 95 29
178 29 l80 0 -65 -19z m-1821 -4 c16 -8 34 -28 41 -45 11 -27 11 -37 -3 -66
-19 -38 -69 -74 -105 -74 -13 0 -37 14 -54 30 -25 26 -29 36 -24 62 8 38 40
76 81 94 37 16 31 17 64 -1z m2416 -7 c72 -12 125 -33 125 -49 0 -21 -109 -3
-210 35 l-95 36 60 -6 c33 -3 87 -10 120 -16z m348 1 c53 -28 37 -59 -32 -59
-29 0 -59 8 -81 21 -32 20 -33 22 -15 35 23 17 98 18 128 3z m-958 -50 c-97
-48 -155 -63 -165 -45 -8 14 66 48 155 73 119 32 121 27 10 -28z m525 6 c111
-37 189 -80 173 -96 -19 -19 -153 40 -268 118 -28 19 -21 17 95 -22z m-1025
15 c34 -13 41 -36 19 -62 -30 -32 -60 -40 -99 -23 -43 17 -46 45 -9 74 30 23
50 26 89 11z m1869 -11 c28 -22 34 -60 13 -77 -27 -23 -62 -24 -90 -2 -36 28
-36 65 1 84 36 20 45 20 76 -5z m-1264 7 c0 -3 -33 -31 -72 -62 -73 -57 -154
-101 -166 -90 -13 14 58 69 143 111 98 48 95 47 95 41z m504 -138 c56 -51 46
-64 -23 -29 -30 16 -131 99 -186 154 -34 33 167 -87 209 -125z m-1455 96 c38
-32 40 -62 5 -103 -31 -37 -53 -39 -88 -6 -33 31 -33 65 0 104 31 38 44 38 83
5z m970 9 c-82 -107 -189 -206 -205 -190 -15 15 41 75 146 156 72 55 79 59 59
34z m-379 -3 c36 -24 -90 -81 -131 -60 -27 15 -20 31 22 52 38 20 86 23 109 8z
m756 -103 c63 -58 101 -117 74 -117 -19 0 -93 75 -154 155 l-61 80 44 -34 c23
-19 67 -57 97 -84z m1263 87 c27 -34 27 -64 1 -92 -41 -44 -110 -13 -110 48 0
64 71 92 109 44z m-1651 -74 c-58 -105 -119 -176 -126 -147 -5 23 35 83 112
170 33 37 61 67 62 67 1 0 -20 -41 -48 -90z m-1289 45 c38 -43 39 -74 6 -132
-32 -53 -61 -57 -99 -12 -40 47 -34 101 17 157 28 30 40 28 76 -13z m2331 20
c35 -18 49 -60 28 -81 -8 -8 -31 -17 -51 -21 -32 -5 -41 -1 -72 30 -19 19 -35
40 -35 46 0 13 55 40 83 41 10 0 31 -7 47 -15z m-754 -57 c62 -78 79 -103 99
-150 14 -34 14 -38 0 -38 -21 0 -70 72 -116 169 -21 45 -37 81 -35 81 1 0 25
-28 52 -62z m-246 -43 c-34 -100 -78 -181 -91 -168 -15 15 10 84 64 175 28 48
52 86 54 84 2 -1 -10 -42 -27 -91z m109 -97 c1 -71 -12 -123 -29 -113 -14 9
-13 123 2 225 l13 85 6 -65 c4 -36 7 -95 8 -132z m158 -47 c14 -101 -45 -8
-82 130 -14 52 -25 99 -24 104 1 23 101 -196 106 -234z m1803 204 c43 -44 47
-97 11 -126 -44 -36 -106 -18 -136 41 -21 41 -19 67 10 95 35 36 74 33 115
-10z m-3783 3 c57 -63 58 -123 5 -199 -22 -31 -49 -58 -66 -64 -25 -9 -31 -6
-62 28 -56 61 -46 131 33 218 40 45 61 48 90 17z m2468 6 c34 -16 50 -38 39
-55 -7 -13 -71 -11 -97 2 -33 17 -67 51 -61 60 9 15 84 10 119 -7z m-705 -95
c-6 -54 -20 -112 -33 -139 l-21 -45 -4 49 c-2 36 5 74 29 142 18 52 34 92 36
90 3 -2 0 -46 -7 -97z m137 -120 c3 -34 1 -59 -5 -63 -20 -12 -44 77 -48 184
l-4 105 26 -85 c14 -47 28 -110 31 -141z m1214 170 c36 -39 39 -87 7 -116 -50
-44 -86 -40 -118 12 -29 48 -23 84 19 112 45 30 57 29 92 -8z m-2213 9 c19
-19 14 -55 -10 -72 -31 -22 -64 -20 -82 5 -13 19 -13 25 0 50 11 23 21 29 47
29 18 0 38 -5 45 -12z m438 -9 c9 -15 -45 -68 -81 -78 -41 -11 -69 3 -55 29
12 22 42 40 85 51 43 10 43 10 51 -2z m-220 -20 c11 -9 11 -16 -1 -40 -23 -43
-72 -61 -119 -43 -50 19 21 111 77 100 17 -3 36 -11 43 -17z m2404 -39 c35
-37 60 -90 60 -125 0 -17 -12 -39 -35 -62 -27 -27 -41 -34 -66 -31 -68 7 -125
132 -86 189 19 26 66 59 85 59 8 0 26 -13 42 -30z m-1165 9 c63 -17 118 -78
82 -92 -27 -10 -70 7 -108 43 -60 57 -52 70 26 49z m-1792 -31 c20 -26 20 -30
4 -62 -21 -46 -51 -55 -83 -25 -30 28 -31 58 -3 93 26 33 55 31 82 -6z m2307
12 c49 -26 48 -80 0 -100 -25 -10 -34 -10 -55 4 -14 10 -31 29 -38 43 -10 22
-8 28 12 44 26 21 53 24 81 9z m-202 -36 c26 -29 29 -69 6 -78 -9 -3 -31 -6
-51 -6 -42 0 -96 50 -91 84 6 43 98 43 136 0z m-1283 -13 c-26 -52 -96 -94
-118 -72 -27 27 55 101 111 101 22 0 22 -1 7 -29z m-629 -14 c23 -20 26 -28
20 -59 -3 -19 -18 -46 -32 -59 l-25 -24 -37 20 c-45 24 -53 63 -22 113 24 39
57 42 96 9z m-562 -12 c34 -34 32 -82 -5 -128 -54 -70 -130 4 -88 86 29 56 63
71 93 42z m2095 -4 c39 -20 71 -59 71 -86 0 -24 -45 -18 -80 11 -27 23 -60 72
-60 89 0 11 32 4 69 -14z m-1105 -10 c9 -13 -10 -57 -34 -81 -25 -25 -95 -28
-104 -5 -7 20 2 45 27 73 15 16 32 22 63 22 24 0 45 -4 48 -9z m-233 -11 c25
-14 24 -41 -2 -74 -32 -41 -99 -32 -99 15 0 25 39 69 61 69 11 0 29 -5 40 -10z
m504 -38 c-17 -41 -67 -92 -90 -92 -22 0 -18 43 7 75 24 31 78 66 90 59 4 -3
1 -22 -7 -42z m1824 2 c47 -59 7 -141 -57 -118 -32 11 -66 66 -57 94 17 55 79
68 114 24z m-1092 -14 c57 -34 88 -110 50 -118 -34 -7 -97 73 -97 123 0 20 8
19 47 -5z m-1776 -19 c36 -37 38 -75 4 -140 -27 -53 -44 -65 -78 -52 -65 25
-79 97 -33 175 33 56 63 61 107 17z m2160 -11 c22 -22 29 -37 27 -57 -3 -25
-8 -28 -41 -31 -24 -2 -48 3 -64 13 -26 18 -58 80 -48 95 4 6 27 10 51 10 37
0 51 -6 75 -30z m486 -9 c46 -68 13 -131 -67 -131 -43 0 -68 27 -77 86 -13 81
97 115 144 45z m-1511 -12 c-7 -46 -30 -85 -58 -100 -54 -29 -42 69 13 115 43
37 53 33 45 -15z m-1858 -1 c24 -20 13 -66 -24 -108 -92 -102 -301 -173 -584
-200 -185 -17 -345 13 -345 64 0 48 94 77 415 126 160 25 225 39 295 67 199
78 207 79 243 51z m2432 -54 c34 -70 13 -108 -34 -61 -26 26 -51 100 -42 123
9 24 52 -11 76 -62z m680 46 c22 -22 26 -60 8 -78 -19 -19 -70 -14 -95 10 -22
20 -31 67 -16 81 15 15 83 7 103 -13z m-1532 -18 c8 -58 -38 -107 -94 -100
-34 4 -41 26 -23 70 22 54 111 76 117 30z m382 -25 c0 -51 -33 -110 -58 -105
-28 6 -21 79 12 123 33 43 46 38 46 -18z m338 -7 c28 -42 28 -113 0 -118 -25
-5 -48 48 -48 108 0 60 12 62 48 10z m-234 14 c3 -9 6 -37 6 -64 0 -57 -29
-104 -52 -82 -18 18 -15 90 6 130 18 35 31 40 40 16z m127 -54 c13 -51 0 -100
-25 -100 -33 0 -48 87 -26 146 9 24 13 26 25 13 8 -8 19 -34 26 -59z m-1273
44 c31 -22 30 -77 -3 -110 -28 -28 -59 -26 -83 5 -27 33 7 121 47 121 9 0 27
-7 39 -16z m3146 -4 c38 -14 105 -79 127 -123 19 -36 19 -40 4 -63 -36 -55
-146 -24 -206 59 -37 51 -38 89 -3 116 30 24 42 25 78 11z m-3794 -13 c53 -41
63 -102 29 -170 -29 -57 -163 -188 -220 -215 -70 -34 -168 -25 -183 15 -14 36
86 166 242 316 71 68 100 80 132 54z m879 -3 c20 -14 23 -23 18 -61 -8 -73
-49 -100 -111 -71 -42 18 -46 71 -10 126 18 27 68 30 103 6z m219 -26 c5 -38
-34 -80 -71 -76 -41 4 -54 27 -38 66 23 54 103 62 109 10z m1357 28 c40 -17
57 -46 53 -89 -2 -27 -8 -33 -31 -35 -38 -5 -75 22 -93 65 -28 65 0 88 71 59z
m-1035 -46 c18 -33 -5 -97 -40 -115 -40 -21 -59 -19 -71 8 -16 35 10 89 52
110 43 21 46 21 59 -3z m2099 3 c11 -10 36 -45 56 -77 59 -101 41 -165 -51
-182 -55 -10 -82 2 -115 54 -61 96 -58 153 10 199 41 28 71 29 100 6z m-1201
-53 c51 -31 68 -111 27 -127 -41 -15 -105 44 -105 96 0 54 24 64 78 31z m361
9 c35 -12 51 -35 51 -74 0 -48 -74 -53 -110 -7 -25 31 -26 68 -2 81 22 13 23
13 61 0z m-1131 -31 c7 -7 12 -31 12 -54 0 -35 -5 -47 -31 -68 -17 -14 -34
-26 -39 -26 -19 0 -40 33 -40 63 1 35 12 54 50 80 29 20 32 21 48 5z m1426 -3
c9 -9 20 -34 26 -56 9 -33 8 -45 -4 -64 -18 -27 -63 -40 -106 -30 -57 12 -83
118 -38 149 29 21 102 21 122 1z m245 -5 c27 -14 54 -86 41 -110 -25 -47 -80
-52 -121 -11 -31 32 -38 75 -16 103 21 27 65 35 96 18z m-2008 -20 c41 -23 13
-103 -41 -115 -35 -7 -53 8 -53 44 0 33 17 59 48 71 27 11 24 11 46 0z m966
-25 c31 -31 35 -40 29 -68 -4 -17 -12 -38 -20 -45 -27 -27 -96 31 -96 82 0 29
20 66 36 66 9 0 32 -16 51 -35z m-1927 5 c55 -55 -21 -190 -106 -190 -27 0
-37 5 -46 25 -15 32 12 103 57 150 37 40 66 44 95 15z m1448 -7 c25 -47 24
-80 -3 -112 -45 -52 -85 -33 -85 40 0 22 9 42 27 61 31 32 48 35 61 11z m326
-35 c9 -12 16 -35 16 -51 0 -71 -55 -92 -90 -34 -22 34 -20 65 6 105 12 18 18
20 34 12 10 -6 26 -20 34 -32z m-1505 6 c35 -29 40 -67 19 -136 -24 -80 -80
-108 -147 -73 -49 25 -54 72 -15 155 14 30 30 60 36 67 18 22 74 15 107 -13z
m1341 -6 c25 -42 25 -69 -1 -102 -25 -32 -53 -33 -73 -4 -21 29 -20 67 1 98
34 49 47 51 73 8z m-852 6 c30 -21 31 -95 2 -124 -23 -23 -98 -28 -118 -8 -20
20 -15 105 8 128 24 24 77 26 108 4z m1530 -30 c30 -19 32 -89 3 -99 -67 -21
-132 63 -85 110 17 17 42 13 82 -11z m-1776 -11 c42 -38 5 -133 -52 -133 -38
0 -60 24 -60 64 0 68 67 110 112 69z m616 -25 c18 -18 15 -73 -5 -90 -46 -41
-93 -24 -93 32 0 48 68 88 98 58z m1430 -54 c26 -30 29 -80 6 -112 -29 -42
-147 -19 -160 32 -10 42 4 96 29 106 36 16 99 3 125 -26z m-448 -14 c24 -44 5
-90 -35 -90 -51 0 -86 78 -50 114 19 18 70 4 85 -24z m-791 -34 c12 -25 11
-31 -6 -55 -36 -48 -93 -36 -93 20 0 36 34 71 63 67 12 -2 28 -16 36 -32z
m-379 4 c25 -25 28 -101 4 -121 -9 -7 -39 -13 -67 -14 -47 0 -53 2 -66 29 -22
47 -5 98 39 113 50 17 67 16 90 -7z m957 -12 c28 -26 30 -69 4 -92 -18 -16
-22 -16 -49 -2 -34 17 -45 40 -36 70 15 51 44 59 81 24z m-393 -20 c21 -29 20
-57 -1 -80 -48 -53 -117 18 -72 75 25 33 53 34 73 5z m199 -6 c23 -20 22 -65
-2 -86 -25 -23 -49 -18 -73 15 -19 25 -19 28 -4 57 23 44 40 47 79 14z m1113
13 c50 -34 55 -117 9 -135 -63 -24 -135 25 -135 91 0 52 77 79 126 44z m393
-24 c38 -41 114 -177 125 -223 5 -21 1 -33 -15 -49 -18 -18 -28 -20 -76 -14
-84 10 -151 33 -184 63 -46 42 -81 159 -62 207 9 25 81 55 132 55 39 0 49 -5
80 -39z m-891 -23 c38 -19 50 -59 29 -103 -15 -31 -21 -35 -54 -35 -40 0 -100
30 -109 55 -8 20 14 83 34 95 19 12 61 6 100 -12z m-1630 -24 c16 -11 22 -25
22 -52 0 -43 -7 -55 -37 -71 -53 -27 -103 -3 -103 50 0 72 64 111 118 73z
m457 -11 c23 -23 37 -63 31 -89 -6 -23 -60 -54 -94 -54 -29 0 -62 46 -62 87 0
30 5 36 43 53 52 24 61 24 82 3z m2471 1 c21 -9 94 -49 164 -88 69 -40 184
-103 255 -139 229 -117 370 -247 267 -247 -50 0 -207 31 -281 56 -250 84 -541
294 -541 392 0 43 64 56 136 26z m-6110 -43 c132 -27 214 -76 173 -102 -22
-14 -144 -11 -249 6 -173 28 -346 82 -326 102 27 27 256 24 402 -6z m2921 5
c25 -22 28 -30 26 -84 -1 -79 -22 -115 -74 -136 -52 -21 -132 -24 -153 -6 -33
27 -8 162 40 220 23 27 32 30 79 30 42 0 60 -5 82 -24z m1664 -17 c38 -27 38
-62 0 -99 -24 -25 -33 -28 -58 -21 -44 13 -73 34 -79 57 -6 24 18 79 38 88 21
9 68 -3 99 -25z m-711 -21 c43 -47 36 -84 -21 -114 -40 -20 -57 -18 -84 12
-36 39 -33 79 8 104 42 26 71 25 97 -2z m-1772 -4 c15 -10 22 -25 22 -47 0
-67 -185 -198 -302 -213 -60 -8 -103 9 -118 46 -29 69 25 125 189 196 86 38
170 45 209 18z m2228 -5 c42 -25 52 -58 29 -93 -29 -44 -79 -46 -123 -5 -29
27 -28 57 5 91 32 33 45 35 89 7z m-227 -15 c36 -30 40 -65 11 -94 -29 -29
-66 -35 -95 -16 -55 36 -55 84 -2 117 41 25 49 24 86 -7z m978 -19 c32 -36 30
-80 -3 -102 -23 -15 -30 -15 -67 -2 -56 20 -82 56 -67 94 15 40 28 47 75 41
27 -3 47 -13 62 -31z m-2549 9 c49 -34 9 -133 -95 -235 -98 -96 -368 -310
-443 -352 -90 -50 -178 -77 -249 -77 -95 0 -117 40 -59 106 39 44 68 63 240
155 176 94 232 135 371 273 139 140 185 165 235 130z m900 -37 c6 -6 13 -24
17 -39 15 -58 -80 -104 -127 -61 -44 39 -3 113 63 113 20 0 41 -6 47 -13z
m1352 -66 c36 -26 39 -75 6 -96 -65 -43 -160 39 -113 97 25 31 61 31 107 -1z
m651 3 c68 -21 99 -62 140 -182 24 -69 25 -128 3 -136 -9 -3 -35 -1 -58 5 -66
17 -244 108 -266 136 -23 30 -28 115 -8 158 20 44 87 51 189 19z m-1741 -24
c28 -28 25 -64 -6 -89 -34 -26 -68 -27 -94 -1 -33 33 -23 72 25 98 30 17 53
14 75 -8z m-508 -28 c9 -9 23 -38 29 -63 11 -41 10 -50 -4 -72 -18 -28 -102
-72 -159 -82 -31 -6 -41 -3 -62 19 -21 21 -26 34 -26 78 0 65 16 98 55 117 68
33 136 34 167 3z m1322 -7 c31 -29 32 -35 5 -69 -23 -29 -47 -33 -88 -11 -45
23 -52 54 -21 85 27 27 71 25 104 -5z m-550 -6 c32 -25 34 -62 4 -83 -33 -23
-71 -20 -97 8 -28 30 -21 60 17 81 36 19 45 19 76 -6z m273 -11 c30 -28 29
-52 -4 -78 -32 -25 -69 -20 -95 12 -23 26 -22 30 3 62 25 32 64 34 96 4z m834
-68 c74 -28 109 -64 109 -112 0 -51 -24 -96 -55 -104 -42 -11 -176 47 -219 95
-24 26 -15 78 19 115 30 32 73 34 146 6z m-1573 -20 c12 -11 29 -34 38 -51 13
-27 13 -33 1 -52 -16 -25 -88 -64 -134 -73 -65 -13 -130 89 -87 138 25 28 92
58 130 58 17 0 40 -9 52 -20z m-2377 -31 c30 -7 64 -23 82 -39 28 -25 30 -30
20 -53 -38 -82 -260 -89 -353 -11 -25 21 -30 33 -28 58 2 25 9 33 38 43 45 15
174 16 241 2z m3604 -8 c22 -10 51 -30 65 -45 l25 -27 -20 -37 c-39 -71 -106
-75 -193 -12 -51 37 -54 65 -13 109 34 37 75 40 136 12z m-916 -17 c51 -42 57
-62 29 -91 -57 -62 -129 -71 -177 -22 -39 39 -40 71 -2 98 66 47 107 51 150
15z m579 1 c46 -20 82 -53 82 -76 0 -26 -66 -79 -98 -79 -43 0 -122 54 -122
83 0 23 27 54 65 75 26 15 29 15 73 -3z m-295 -6 c36 -19 67 -51 67 -70 0 -21
-52 -67 -86 -75 -13 -3 -36 -3 -50 0 -32 8 -84 58 -84 80 0 21 77 76 107 76
13 0 34 -5 46 -11z m-1325 -104 c5 -53 -32 -121 -135 -250 -121 -151 -202
-231 -258 -256 -43 -19 -48 -19 -71 -5 -19 13 -24 25 -24 59 1 78 68 190 195
325 161 172 285 225 293 127z m425 -86 c15 -21 17 -34 12 -60 -15 -65 -190
-205 -248 -197 -19 3 -22 8 -21 49 3 84 73 181 158 220 51 24 74 21 99 -12z
m389 -16 c29 -26 23 -67 -17 -102 -59 -52 -125 -54 -147 -5 -32 70 106 160
164 107z m357 -18 c29 -29 22 -59 -22 -86 -41 -24 -82 -24 -107 1 -38 38 -20
85 40 109 32 12 59 5 89 -24z m335 4 c34 -27 34 -62 -1 -89 -36 -28 -89 -21
-120 15 -29 33 -29 40 2 70 30 31 82 33 119 4z m333 1 c48 -29 69 -65 55 -95
-22 -48 -88 -45 -147 6 -41 36 -43 54 -13 86 26 28 62 29 105 3z m2736 -23
c151 -70 286 -188 340 -298 58 -115 11 -193 -86 -142 -81 41 -427 423 -427
470 0 25 86 10 173 -30z m-2319 -7 c106 -72 132 -216 36 -195 -41 9 -142 85
-168 128 -27 43 -28 61 -1 88 28 28 73 21 133 -21z m1647 -10 c345 -125 684
-468 629 -635 -21 -64 -83 -96 -219 -114 -41 -5 -78 -16 -82 -23 -11 -18 -4
-43 53 -183 68 -167 119 -337 125 -420 5 -60 3 -73 -15 -95 -29 -36 -98 -32
-237 14 -438 146 -658 371 -863 886 -67 168 -94 260 -90 306 l3 39 60 -1 c67
-2 191 -46 414 -148 68 -31 126 -54 129 -51 3 3 -26 71 -65 153 -39 81 -76
162 -82 181 -15 45 -14 104 2 120 20 21 140 7 238 -29z m-1168 -41 c123 -81
264 -304 255 -401 -3 -28 -7 -33 -32 -36 -24 -3 -39 7 -90 60 -64 65 -178 222
-215 295 -21 41 -28 93 -14 106 14 15 52 5 96 -24z m-1377 -114 c19 -14 41
-37 50 -50 14 -21 14 -27 0 -53 -17 -33 -73 -79 -116 -93 -21 -8 -40 -7 -64 1
-39 13 -106 81 -106 108 0 28 28 61 79 94 56 36 103 34 157 -7z m350 -4 c57
-33 111 -89 120 -125 12 -48 -56 -126 -109 -126 -35 0 -88 33 -148 91 -79 78
-79 111 -1 160 57 36 74 36 138 0z m-742 0 c17 -11 39 -33 49 -50 16 -27 16
-33 3 -58 -15 -30 -134 -149 -176 -177 -13 -9 -40 -16 -58 -16 -63 0 -121 95
-94 155 17 37 73 95 126 131 59 39 103 44 150 15z m550 -312 c58 -45 83 -135
93 -324 5 -101 3 -126 -11 -153 -35 -68 -117 -47 -161 42 -17 36 -28 81 -35
151 -5 55 -13 118 -16 141 -8 55 11 119 43 143 33 26 53 26 87 0z m-416 -32
c12 -13 25 -37 28 -54 8 -40 -23 -293 -43 -347 -34 -98 -119 -168 -177 -146
-47 18 -52 48 -28 163 12 56 29 135 37 175 26 131 87 232 140 232 12 0 31 -10
43 -23z m-1197 -174 c32 -83 -34 -236 -150 -353 -78 -78 -135 -114 -174 -108
-35 5 -31 29 24 118 29 47 79 132 112 189 94 162 163 219 188 154z m2209 -410
c85 -87 168 -205 172 -243 3 -20 -2 -26 -24 -28 -85 -10 -288 188 -288 281 0
16 5 37 10 48 20 36 51 22 130 -58z m-775 -22 c60 -35 165 -127 165 -145 0
-16 -99 -70 -176 -96 -32 -11 -83 -20 -115 -20 -60 0 -198 38 -234 64 -19 14
-18 16 25 56 187 175 239 197 335 141z m-879 -66 c28 -71 -174 -245 -283 -245
-51 0 -42 30 33 110 111 118 232 183 250 135z m4522 -138 c56 -54 28 -80 -38
-34 -41 27 -55 49 -47 71 8 21 36 9 85 -37z m-6177 33 c11 -6 19 -21 19 -35 0
-33 -45 -58 -256 -144 -94 -38 -194 -81 -222 -95 -111 -56 -95 -12 37 100 169
145 343 216 422 174z m2792 -186 c45 -23 77 -54 77 -76 0 -53 -189 -24 -240
37 -37 45 92 75 163 39z m-582 -24 c25 -14 24 -32 -5 -59 -54 -51 -218 -83
-233 -46 -10 27 42 70 122 102 38 15 91 16 116 3z m-1521 -224 c0 -24 -71 -77
-159 -120 -68 -32 -99 -41 -153 -44 -80 -5 -90 10 -35 52 99 75 347 155 347
112z m4607 -51 c75 -36 221 -182 291 -290 91 -139 145 -325 128 -438 -14 -90
-26 -78 -119 113 -91 185 -147 258 -285 366 -164 130 -202 172 -202 228 0 61
84 71 187 21z m-1875 -1 c100 -51 316 -304 260 -304 -27 0 -248 183 -300 249
-39 50 -44 59 -37 71 7 12 34 6 77 -16z m-1948 -13 c21 -34 -232 -191 -308
-191 -14 0 -26 4 -26 9 0 5 25 32 55 60 90 82 259 156 279 122z m-2385 -307
c-23 -54 -70 -180 -105 -279 -83 -232 -100 -254 -68 -85 27 143 102 330 177
439 17 25 32 40 34 35 2 -6 -15 -55 -38 -110z m1246 -234 c19 -30 -116 -100
-209 -107 -110 -9 -154 31 -73 67 85 37 267 64 282 40z m4185 -195 c59 -120
82 -180 62 -160 -14 13 -136 247 -157 300 l-16 40 26 -30 c14 -16 52 -84 85
-150z"/>
<path d="M3560 9963 c0 -59 28 -218 56 -323 77 -284 258 -604 406 -715 64 -48
121 -82 295 -178 56 -31 175 -103 264 -161 189 -123 188 -122 361 -82 149 36
215 40 360 22 81 -9 138 -12 157 -6 17 5 97 49 179 99 192 118 267 151 457
206 86 25 178 56 205 70 54 28 132 88 380 295 204 171 330 267 405 310 120 68
233 86 345 55 134 -38 180 -27 266 63 75 78 143 246 144 355 l0 27 -465 0
-465 0 0 -53 c0 -108 -75 -213 -283 -394 -62 -54 -175 -157 -252 -229 -348
-328 -479 -406 -738 -439 -111 -15 -133 -21 -239 -71 -262 -122 -334 -127
-548 -39 -78 32 -131 47 -196 55 -193 23 -280 65 -414 200 -200 199 -367 519
-415 794 -8 49 -15 108 -15 132 l0 44 -50 0 c-59 0 -57 8 -34 -149 27 -185
104 -384 241 -621 27 -47 52 -93 56 -102 11 -31 -14 -20 -54 22 -155 162 -287
494 -306 768 l-6 82 -48 0 -49 0 0 -37z m3020 -685 c0 -56 -267 -258 -342
-258 -29 0 -21 14 40 72 72 68 153 129 223 168 58 32 79 37 79 18z m-970 -528
c13 -9 9 -15 -20 -40 -72 -62 -229 -93 -238 -47 -6 28 142 90 228 96 8 0 22
-4 30 -9z m-806 -70 c108 -41 109 -75 3 -74 -47 0 -75 7 -114 27 -51 27 -79
57 -65 72 12 12 116 -3 176 -25z"/>
<path d="M3923 9908 c12 -189 76 -350 206 -523 102 -136 404 -409 547 -495 54
-33 64 -35 139 -34 44 0 116 9 160 19 58 13 142 19 310 24 l230 6 50 29 c28
16 122 79 210 141 191 133 230 158 405 259 264 153 366 250 459 433 30 61 61
165 61 211 l0 22 -203 0 -203 0 -12 -72 c-13 -76 -69 -207 -121 -282 -119
-173 -251 -261 -511 -341 -52 -16 -137 -56 -220 -103 -167 -95 -240 -121 -341
-122 -91 0 -155 18 -270 75 -47 24 -128 58 -180 75 -126 42 -201 84 -272 149
-135 126 -238 344 -256 546 l-6 70 -94 3 -94 3 6 -93z m1747 -762 c0 -35 -133
-113 -210 -123 -122 -17 -63 55 94 113 71 27 116 30 116 10z m-915 -87 c92
-38 110 -51 101 -74 -9 -24 -96 -17 -159 14 -54 26 -110 78 -101 93 10 15 77
1 159 -33z"/>
<path d="M4305 9938 c16 -139 79 -301 168 -432 59 -88 169 -199 229 -231 47
-26 62 -29 138 -28 47 1 130 11 185 22 55 12 174 26 265 32 243 14 275 26 402
147 172 163 297 382 298 520 l0 32 -224 0 -225 0 -11 -55 c-20 -98 -75 -192
-164 -281 -108 -108 -171 -139 -281 -139 -65 0 -90 5 -135 26 -143 68 -301
267 -317 400 l-6 49 -164 0 -165 0 7 -62z m1436 -200 c-35 -115 -172 -248
-256 -248 -54 0 -30 39 110 179 103 103 138 132 147 123 9 -9 8 -21 -1 -54z
m-1075 -174 c124 -88 164 -124 164 -145 0 -15 -7 -19 -36 -19 -71 0 -157 60
-204 144 -55 94 -35 100 76 20z"/>
<path d="M8876 9928 c-13 -140 -27 -265 -51 -443 -13 -99 -36 -283 -50 -410
-67 -602 -150 -783 -580 -1275 -55 -63 -122 -143 -148 -178 -86 -112 -177
-304 -177 -374 0 -37 18 -44 146 -57 179 -19 283 -65 340 -151 15 -22 44 -85
65 -141 21 -56 46 -113 55 -126 24 -37 80 -57 284 -103 242 -55 379 -101 580
-198 259 -124 340 -148 547 -159 l113 -6 0 180 0 180 -167 6 c-135 4 -187 10
-266 30 -168 44 -245 100 -382 277 -49 63 -55 67 -222 150 -185 92 -233 128
-259 197 -30 78 -9 162 96 388 117 252 126 296 109 526 -16 207 -8 306 55 679
70 416 80 516 80 765 0 121 -4 241 -8 268 l-7 47 -74 0 -73 0 -6 -72z m71
-420 c-4 -57 -11 -116 -15 -133 -16 -56 -23 4 -12 110 5 55 10 106 10 113 0 6
5 12 12 12 8 0 9 -28 5 -102z m-364 -1696 c-14 -75 -63 -199 -109 -274 -55
-90 -110 -118 -161 -83 -32 22 -37 64 -15 123 34 89 169 261 237 303 26 16 32
17 44 4 12 -12 13 -25 4 -73z m265 -852 c66 -33 122 -89 122 -121 0 -67 -186
-30 -254 51 -73 88 9 131 132 70z"/>
<path d="M9125 9823 c-7 -183 3 -362 31 -583 22 -168 29 -435 15 -560 -7 -58
-30 -197 -53 -309 -52 -264 -51 -324 6 -432 117 -220 118 -221 118 -295 0 -38
-10 -105 -21 -149 -46 -176 -37 -298 28 -367 69 -74 292 -126 584 -135 l167
-6 0 484 0 484 -43 -3 c-58 -5 -119 13 -157 45 -49 40 -79 113 -115 277 -45
202 -62 246 -159 389 -91 135 -135 231 -163 352 -16 72 -18 124 -15 533 l2
452 -109 0 -109 0 -7 -177z m258 -1391 c11 -18 22 -60 24 -95 4 -51 2 -66 -14
-86 -39 -48 -83 11 -83 113 0 105 33 136 73 68z m353 -1013 c57 -15 114 -66
114 -103 0 -53 -57 -86 -151 -86 -131 0 -203 85 -130 154 45 43 93 53 167 35z"/>
<path d="M9455 9923 c10 -119 40 -261 95 -458 28 -99 64 -250 80 -335 66 -337
87 -406 146 -463 40 -41 87 -57 160 -57 l64 0 0 395 0 395 -37 0 c-68 0 -131
56 -166 146 -35 90 -46 329 -21 431 l6 23 -167 0 -167 0 7 -77z"/>
<path d="M0 3486 l0 -176 93 0 c176 0 333 -29 443 -80 77 -37 140 -93 215
-191 75 -99 94 -113 259 -192 294 -141 314 -215 150 -572 -111 -241 -126 -318
-103 -509 22 -188 13 -408 -26 -651 -58 -357 -73 -485 -78 -696 -3 -113 -2
-254 2 -312 l7 -107 77 0 78 0 7 108 c4 59 22 231 41 382 18 151 41 352 50
445 53 566 139 773 500 1203 226 271 283 355 332 489 24 68 27 90 15 110 -4 7
-65 24 -135 38 -251 50 -309 97 -381 312 -40 119 -56 146 -101 167 -18 9 -123
37 -232 62 -251 58 -384 101 -548 176 -288 133 -369 158 -547 166 l-118 5 0
-177z m1154 -327 c101 -37 154 -113 106 -151 -28 -23 -47 -23 -114 3 -95 35
-183 142 -133 162 28 12 90 6 141 -14z m476 -659 c39 -39 19 -118 -57 -233
-59 -88 -169 -207 -193 -207 -77 0 48 354 155 438 35 27 69 28 95 2z m-554
-1970 c-4 -55 -11 -112 -15 -127 l-8 -28 -7 29 c-6 26 -4 69 10 184 3 23 10
42 16 42 7 0 8 -31 4 -100z"/>
<path d="M0 2483 l0 -501 55 -4 c113 -9 166 -76 225 -283 50 -178 76 -233 167
-360 192 -268 209 -350 200 -942 l-6 -393 109 0 108 0 7 77 c12 123 -1 463
-25 643 -47 363 -44 534 16 890 49 292 46 315 -72 501 -31 48 -62 105 -70 126
-22 64 -17 157 16 272 53 184 36 312 -49 369 -83 54 -272 92 -508 99 l-173 6
0 -500z m305 246 c128 -35 106 -151 -37 -194 -88 -26 -218 -16 -248 20 -33 40
42 135 130 165 63 22 99 24 155 9z m346 -1031 c20 -48 18 -153 -3 -174 -21
-21 -33 -13 -60 39 -29 57 -31 153 -4 172 25 19 49 5 67 -37z"/>
<path d="M5070 1503 c-105 -28 -262 -35 -440 -20 l-95 9 -148 -91 c-232 -143
-279 -164 -501 -226 -200 -56 -215 -66 -571 -359 -412 -341 -531 -393 -766
-334 -118 29 -149 20 -239 -71 -96 -97 -160 -242 -160 -363 l0 -48 455 0 455
0 0 48 c0 108 80 214 303 400 78 65 205 177 281 248 340 317 459 385 729 419
115 15 130 20 257 80 168 79 198 88 285 88 79 0 137 -15 254 -67 62 -27 106
-39 178 -47 192 -21 297 -73 433 -216 210 -219 367 -541 408 -834 l17 -119 48
0 49 0 -7 68 c-23 231 -94 426 -249 690 -42 71 -76 132 -76 135 0 19 32 2 67
-36 163 -177 313 -561 313 -803 l0 -54 51 0 52 0 -6 83 c-17 242 -131 560
-286 795 -112 170 -170 218 -420 351 -84 45 -222 126 -305 180 -83 54 -161
103 -173 110 -32 16 -87 12 -193 -16z m225 -127 c64 -30 96 -63 75 -77 -35
-23 -208 20 -244 60 -17 18 -16 20 1 30 32 19 114 12 168 -13z m-647 -33 c-7
-39 -128 -92 -217 -96 -56 -2 -62 10 -20 46 49 43 112 65 182 66 50 1 58 -1
55 -16z m-877 -382 c-30 -56 -286 -241 -333 -241 -33 0 -19 24 60 100 80 76
162 132 229 155 44 15 57 11 44 -14z"/>
<path d="M9190 1430 c-173 -23 -239 -75 -378 -296 -38 -60 -104 -161 -147
-224 -95 -139 -150 -251 -170 -345 -16 -74 -20 -332 -8 -482 l6 -83 131 0 132
0 12 182 c30 440 79 608 211 730 68 62 158 107 336 170 77 27 187 67 245 88
140 52 279 89 368 97 l72 6 0 83 0 84 -377 -1 c-208 -1 -403 -5 -433 -9z m200
-151 c0 -17 -106 -60 -165 -66 -50 -5 -55 -4 -49 12 11 28 102 65 162 65 30 0
52 -4 52 -11z m-743 -966 c-3 -54 -8 -106 -12 -115 -15 -38 -25 -14 -25 60 0
84 14 152 32 152 8 0 9 -30 5 -97z"/>
<path d="M0 971 l0 -388 44 -5 c24 -3 57 -15 73 -26 87 -62 132 -275 104 -494
l-7 -58 164 0 165 0 -7 88 c-8 112 -32 226 -96 447 -28 98 -71 271 -96 384
-49 229 -57 256 -89 321 -42 83 -104 120 -200 120 l-55 0 0 -389z"/>
<path d="M5150 1144 c-14 -2 -75 -14 -137 -25 -85 -15 -161 -21 -315 -22
l-203 -2 -60 -34 c-33 -18 -139 -89 -235 -156 -96 -67 -265 -175 -376 -240
-110 -64 -228 -140 -262 -169 -140 -119 -242 -292 -267 -453 l-7 -43 211 0
210 0 6 38 c37 218 183 430 377 545 35 21 126 58 203 83 77 24 163 57 190 73
28 15 86 49 130 75 221 128 329 132 565 21 74 -35 166 -73 204 -85 120 -37
185 -76 271 -164 61 -62 92 -103 127 -172 55 -107 96 -240 105 -341 l6 -73 93
0 94 0 0 78 c0 197 -95 411 -266 603 -137 153 -405 384 -506 435 -49 25 -112
36 -158 28z m158 -150 c63 -31 111 -83 89 -95 -28 -16 -216 48 -245 84 -21 25
-5 37 52 37 36 0 68 -8 104 -26z m-704 -33 c20 -32 -227 -149 -265 -126 -46
29 120 135 213 135 26 0 49 -4 52 -9z"/>
<path d="M9675 1079 c-167 -21 -272 -75 -390 -200 -68 -71 -211 -275 -289
-409 -80 -136 -136 -313 -136 -425 l0 -45 138 0 137 0 2 118 c5 286 104 461
323 572 100 50 375 127 510 142 25 3 25 3 28 124 l3 121 -32 7 c-43 8 -208 5
-294 -5z m45 -138 c0 -11 -84 -41 -114 -41 -18 0 -18 2 -6 14 25 25 120 46
120 27z"/>
<path d="M4965 715 c-67 -13 -197 -28 -290 -34 -154 -10 -174 -13 -232 -40
-74 -35 -199 -154 -276 -263 -79 -111 -147 -277 -147 -358 0 -19 9 -20 234
-20 l233 0 11 56 c28 139 159 305 286 365 60 28 74 31 144 27 93 -4 149 -29
227 -100 92 -84 185 -249 185 -328 0 -19 6 -20 175 -20 l175 0 0 23 c0 40 -20
139 -42 207 -64 199 -232 427 -361 489 -58 28 -164 27 -322 -4z m331 -161 c84
-48 183 -204 130 -204 -14 0 -178 120 -228 168 -71 66 0 93 98 36z m-760 -79
c8 -20 -11 -47 -93 -137 -37 -40 -94 -103 -125 -138 -44 -49 -60 -62 -67 -51
-11 18 4 84 34 147 56 114 229 238 251 179z"/>
<path d="M9825 682 c-112 -39 -200 -108 -288 -226 -68 -93 -159 -274 -181
-362 -26 -101 -34 -94 113 -94 l129 0 11 61 c12 73 37 115 98 169 55 48 148
80 234 80 l59 0 0 195 0 195 -62 0 c-35 -1 -86 -8 -113 -18z"/>
</g>
</svg>
